# xmcd CD database file generated by Grip 2.95
# 
# Track frame offsets:
#       200
#       18405
#       48717
#       63547
#       78300
#       99880
#       112662
#       140277
#       151612
#       166547
#       185222
#       201130
#       216192
#       235240
#       247752
#       265147
#       278387
#       290125
#       305102
# 
# Disc length: 4310 seconds
# 
# Revision: 3
# Processed by: cddbd v1.4b41PL3 Copyright (c) Steve Scherf et al.
# Submitted via: Grip 2.95
# 
DISCID=fe10d413
DTITLE=Brownie McGhee and Sonny Terry - Brownie and Sonny/The Giants of the Blues
DYEAR=1900
DGENRE=
TTITLE0=I'm a Stranger Here
TTITLE1=Everybody's Blue
TTITLE2=Walk On
TTITLE3=Down By the RIverside
TTITLE4=Blues for the Lowlands
TTITLE5=Right On That Shore
TTITLE6=Blowin' the Fuses
TTITLE7=Conrnbread, Meat and Molasses
TTITLE8=Ham and Eggs
TTITLE9=Lost John
TTITLE10=Chain Gang Blues
TTITLE11=It Takes a Chain Gang
TTITLE12=Betty and Dupree
TTITLE13=Stackhole
TTITLE14=Rock Me Momma
TTITLE15=Chain Gang Special
TTITLE16=Long John
TTITLE17=Pick A Bale of Cotton
TTITLE18=Red River
EXTD=
EXTT0=
EXTT1=
EXTT2=
EXTT3=
EXTT4=
EXTT5=
EXTT6=
EXTT7=
EXTT8=
EXTT9=
EXTT10=
EXTT11=
EXTT12=
EXTT13=
EXTT14=
EXTT15=
EXTT16=
EXTT17=
EXTT18=
PLAYORDER=
